#define 4798_79725423218f9ac49fd07704f66b36b4dda0b7879a81b995b659fdade984fcf4_width 24
#define 4798_79725423218f9ac49fd07704f66b36b4dda0b7879a81b995b659fdade984fcf4_height 32
static char 4798_79725423218f9ac49fd07704f66b36b4dda0b7879a81b995b659fdade984fcf4_bits[] = {
  0x00, 0x00, 0x00, 0x00, 0x00, 0x00, 0x00, 0x00, 0x00, 0x80, 0x07, 0x00, 
  0x60, 0x00, 0x00, 0x10, 0x00, 0x00, 0x08, 0x07, 0x00, 0x84, 0x00, 0x00, 
  0x44, 0x00, 0x00, 0x22, 0x07, 0x00, 0x92, 0x01, 0x00, 0x92, 0xFC, 0x1F, 
  0x92, 0x02, 0x20, 0x00, 0x02, 0x20, 0x00, 0x02, 0x20, 0x00, 0xC2, 0x21, 
  0x00, 0x62, 0x20, 0x00, 0x22, 0x20, 0x00, 0x22, 0x22, 0x00, 0xE2, 0x23, 
  0x00, 0xC2, 0x20, 0x00, 0x42, 0x20, 0x00, 0x42, 0x20, 0x00, 0x42, 0x28, 
  0x00, 0xC2, 0x2C, 0x00, 0x82, 0x27, 0x00, 0x02, 0x20, 0x00, 0x02, 0x20, 
  0x00, 0xFC, 0x1F, 0x00, 0x00, 0x00, 0x00, 0x00, 0x00, 0x00, 0x00, 0x00, 
  };
